<svg width="844" height="146" viewBox="0 0 844 146" fill="none" xmlns="http://www.w3.org/2000/svg">
<path d="M290 29.1118C290 13.3665 303.431 0.602478 320 0.602478H814C830.569 0.602478 844 13.3665 844 29.1118V117.491C844 133.236 830.569 146 814 146H320C303.431 146 290 133.236 290 117.491V29.1118Z" fill="url(#paint0_linear_47_99)"/>
<path d="M71.6726 49.3921H92.8942C92.5874 30.7273 77.2465 17.8409 53.9283 17.8409C30.968 17.8409 14.1442 30.5227 14.2465 49.5455C14.1953 64.9886 25.0874 73.8352 42.7805 78.0796L54.184 80.9432C65.5874 83.7046 71.9283 86.9773 71.9794 94.0341C71.9283 101.705 64.6669 106.92 53.4169 106.92C41.9112 106.92 33.6271 101.602 32.9112 91.1193H11.4851C12.0476 113.773 28.2578 125.483 53.6726 125.483C79.2408 125.483 94.2749 113.261 94.326 94.0852C94.2749 76.6477 81.1328 67.392 62.9283 63.3011L53.5192 61.0511C44.4169 58.9545 36.7976 55.5796 36.951 48.0625C36.951 41.3125 42.934 36.3523 53.7749 36.3523C64.3601 36.3523 70.8544 41.1591 71.6726 49.3921Z" fill="black"/>
<path d="M159.18 90.5568C159.231 101.091 152.021 106.614 144.197 106.614C135.964 106.614 130.646 100.835 130.594 91.5796V45.4546H108.81V95.4659C108.862 113.824 119.6 125.023 135.401 125.023C147.214 125.023 155.702 118.938 159.231 109.733H160.049V124H180.964V45.4546H159.18V90.5568Z" fill="black"/>
<path d="M198.798 124H220.275V111.42H221.246C224.263 117.966 230.86 125.278 243.542 125.278C261.44 125.278 275.4 111.114 275.4 84.8296C275.4 57.8296 260.826 44.4318 243.593 44.4318C230.451 44.4318 224.161 52.2557 221.246 58.6477H220.582V19.2727H198.798V124ZM220.121 84.7273C220.121 70.7159 226.053 61.7671 236.639 61.7671C247.428 61.7671 253.156 71.125 253.156 84.7273C253.156 98.4318 247.326 107.943 236.639 107.943C226.156 107.943 220.121 98.7386 220.121 84.7273Z" fill="black"/>
<path d="M299.957 37.5284H332.02V124H353.906V37.5284H385.969V19.2727H299.957V37.5284Z" fill="white"/>
<path d="M391.568 124H413.352V79.5625C413.352 69.8977 420.409 63.25 430.023 63.25C433.04 63.25 437.182 63.7614 439.227 64.4261V45.0966C437.284 44.6364 434.574 44.3295 432.375 44.3295C423.58 44.3295 416.369 49.4432 413.506 59.1591H412.688V45.4545H391.568V124Z" fill="white"/>
<path d="M470.638 125.483C482.246 125.483 489.763 120.42 493.598 113.108H494.212V124H514.871V71.0227C514.871 52.3068 499.018 44.4318 481.53 44.4318C462.712 44.4318 450.337 53.4318 447.32 67.75L467.467 69.3864C468.95 64.1704 473.604 60.3352 481.428 60.3352C488.842 60.3352 493.087 64.0682 493.087 70.5114V70.8182C493.087 75.8807 487.717 76.5454 474.064 77.875C458.518 79.3068 444.558 84.5227 444.558 102.062C444.558 117.608 455.655 125.483 470.638 125.483ZM476.876 110.449C470.178 110.449 465.371 107.33 465.371 101.347C465.371 95.2102 470.433 92.1932 478.104 91.1193C482.859 90.4545 490.632 89.3295 493.24 87.5909V95.9261C493.24 104.159 486.439 110.449 476.876 110.449Z" fill="white"/>
<path d="M567.26 125.534C588.175 125.534 601.317 113.261 602.339 95.2102H581.783C580.504 103.597 574.982 108.301 567.516 108.301C557.339 108.301 550.743 99.7614 550.743 84.7273C550.743 69.8977 557.391 61.4091 567.516 61.4091C575.493 61.4091 580.607 66.6761 581.783 74.5H602.339C601.419 56.3466 587.663 44.4318 567.158 44.4318C543.328 44.4318 528.601 60.9489 528.601 85.0341C528.601 108.915 543.072 125.534 567.26 125.534Z" fill="white"/>
<path d="M616.287 124H638.071V99.0455L643.952 92.3466L665.378 124H690.895L660.264 79.4602L689.412 45.4545H664.406L639.247 75.267H638.071V19.2727H616.287V124Z" fill="white"/>
<path d="M732.661 125.534C752.092 125.534 765.183 116.074 768.251 101.5L748.104 100.17C745.905 106.153 740.28 109.273 733.018 109.273C722.126 109.273 715.223 102.062 715.223 90.3523V90.3011H768.712V84.3182C768.712 57.625 752.553 44.4318 731.791 44.4318C708.678 44.4318 693.695 60.8466 693.695 85.0852C693.695 109.989 708.473 125.534 732.661 125.534ZM715.223 76.8011C715.683 67.8523 722.484 60.6932 732.149 60.6932C741.609 60.6932 748.155 67.4432 748.206 76.8011H715.223Z" fill="white"/>
<path d="M782.928 124H804.712V79.5625C804.712 69.8977 811.768 63.25 821.382 63.25C824.399 63.25 828.541 63.7614 830.587 64.4261V45.0966C828.643 44.6364 825.933 44.3295 823.734 44.3295C814.939 44.3295 807.729 49.4432 804.865 59.1591H804.047V45.4545H782.928V124Z" fill="white"/>
<defs>
<linearGradient id="paint0_linear_47_99" x1="844" y1="73" x2="290" y2="73" gradientUnits="userSpaceOnUse">
<stop stop-color="#FF0000"/>
<stop offset="0.0001" stop-color="#F80E0E"/>
<stop offset="1" stop-color="#FF0000"/>
</linearGradient>
</defs>
</svg>
